<mxfile host="Electron" agent="Mozilla/5.0 (Windows NT 10.0; Win64; x64) AppleWebKit/537.36 (KHTML, like Gecko) draw.io/24.7.8 Chrome/128.0.6613.36 Electron/32.0.1 Safari/537.36" version="24.7.8">
  <diagram name="PÃ¡gina-1" id="MI5HquCPMQ2WDsqj7IQv">
    <mxGraphModel dx="1100" dy="665" grid="1" gridSize="10" guides="1" tooltips="1" connect="1" arrows="1" fold="1" page="1" pageScale="1" pageWidth="827" pageHeight="1169" math="0" shadow="0">
      <root>
        <mxCell id="0" />
        <mxCell id="1" parent="0" />
        <mxCell id="uESIzhDvVwOTqQSolOpy-28" value="" style="edgeStyle=orthogonalEdgeStyle;rounded=0;orthogonalLoop=1;jettySize=auto;html=1;" edge="1" parent="1" source="uESIzhDvVwOTqQSolOpy-1" target="uESIzhDvVwOTqQSolOpy-27">
          <mxGeometry relative="1" as="geometry" />
        </mxCell>
        <mxCell id="uESIzhDvVwOTqQSolOpy-1" value="AREA" style="whiteSpace=wrap;html=1;" vertex="1" parent="1">
          <mxGeometry x="520" y="510" width="120" height="60" as="geometry" />
        </mxCell>
        <mxCell id="uESIzhDvVwOTqQSolOpy-9" value="" style="edgeStyle=orthogonalEdgeStyle;rounded=0;orthogonalLoop=1;jettySize=auto;html=1;" edge="1" parent="1" source="uESIzhDvVwOTqQSolOpy-2" target="uESIzhDvVwOTqQSolOpy-8">
          <mxGeometry relative="1" as="geometry" />
        </mxCell>
        <mxCell id="uESIzhDvVwOTqQSolOpy-18" value="" style="edgeStyle=orthogonalEdgeStyle;rounded=0;orthogonalLoop=1;jettySize=auto;html=1;" edge="1" parent="1" source="uESIzhDvVwOTqQSolOpy-2" target="uESIzhDvVwOTqQSolOpy-17">
          <mxGeometry relative="1" as="geometry" />
        </mxCell>
        <mxCell id="uESIzhDvVwOTqQSolOpy-2" value="EMPLEADO" style="whiteSpace=wrap;html=1;" vertex="1" parent="1">
          <mxGeometry x="400" y="310" width="120" height="60" as="geometry" />
        </mxCell>
        <mxCell id="uESIzhDvVwOTqQSolOpy-13" value="" style="edgeStyle=orthogonalEdgeStyle;rounded=0;orthogonalLoop=1;jettySize=auto;html=1;" edge="1" parent="1" source="uESIzhDvVwOTqQSolOpy-3" target="uESIzhDvVwOTqQSolOpy-12">
          <mxGeometry relative="1" as="geometry" />
        </mxCell>
        <mxCell id="uESIzhDvVwOTqQSolOpy-3" value="GERENTE" style="whiteSpace=wrap;html=1;" vertex="1" parent="1">
          <mxGeometry x="640" y="310" width="120" height="60" as="geometry" />
        </mxCell>
        <mxCell id="uESIzhDvVwOTqQSolOpy-5" style="edgeStyle=orthogonalEdgeStyle;rounded=0;orthogonalLoop=1;jettySize=auto;html=1;entryX=0.5;entryY=0;entryDx=0;entryDy=0;" edge="1" parent="1" source="uESIzhDvVwOTqQSolOpy-4" target="uESIzhDvVwOTqQSolOpy-2">
          <mxGeometry relative="1" as="geometry" />
        </mxCell>
        <mxCell id="uESIzhDvVwOTqQSolOpy-6" style="edgeStyle=orthogonalEdgeStyle;rounded=0;orthogonalLoop=1;jettySize=auto;html=1;" edge="1" parent="1" source="uESIzhDvVwOTqQSolOpy-4" target="uESIzhDvVwOTqQSolOpy-3">
          <mxGeometry relative="1" as="geometry" />
        </mxCell>
        <mxCell id="uESIzhDvVwOTqQSolOpy-31" value="" style="edgeStyle=orthogonalEdgeStyle;rounded=0;orthogonalLoop=1;jettySize=auto;html=1;" edge="1" parent="1" source="uESIzhDvVwOTqQSolOpy-4" target="uESIzhDvVwOTqQSolOpy-30">
          <mxGeometry relative="1" as="geometry" />
        </mxCell>
        <mxCell id="uESIzhDvVwOTqQSolOpy-34" value="" style="edgeStyle=orthogonalEdgeStyle;rounded=0;orthogonalLoop=1;jettySize=auto;html=1;" edge="1" parent="1" source="uESIzhDvVwOTqQSolOpy-4" target="uESIzhDvVwOTqQSolOpy-33">
          <mxGeometry relative="1" as="geometry" />
        </mxCell>
        <mxCell id="uESIzhDvVwOTqQSolOpy-4" value="PERSONA" style="whiteSpace=wrap;html=1;" vertex="1" parent="1">
          <mxGeometry x="520" y="190" width="120" height="60" as="geometry" />
        </mxCell>
        <mxCell id="uESIzhDvVwOTqQSolOpy-7" value="(T,S)" style="text;html=1;align=center;verticalAlign=middle;resizable=0;points=[];autosize=1;strokeColor=none;fillColor=none;" vertex="1" parent="1">
          <mxGeometry x="580" y="250" width="50" height="30" as="geometry" />
        </mxCell>
        <mxCell id="uESIzhDvVwOTqQSolOpy-10" style="edgeStyle=orthogonalEdgeStyle;rounded=0;orthogonalLoop=1;jettySize=auto;html=1;entryX=0.25;entryY=0;entryDx=0;entryDy=0;" edge="1" parent="1" source="uESIzhDvVwOTqQSolOpy-8" target="uESIzhDvVwOTqQSolOpy-1">
          <mxGeometry relative="1" as="geometry" />
        </mxCell>
        <mxCell id="uESIzhDvVwOTqQSolOpy-8" value="corresponde" style="rhombus;whiteSpace=wrap;html=1;" vertex="1" parent="1">
          <mxGeometry x="425" y="420" width="70" height="60" as="geometry" />
        </mxCell>
        <mxCell id="uESIzhDvVwOTqQSolOpy-14" style="edgeStyle=orthogonalEdgeStyle;rounded=0;orthogonalLoop=1;jettySize=auto;html=1;entryX=0.75;entryY=0;entryDx=0;entryDy=0;" edge="1" parent="1" source="uESIzhDvVwOTqQSolOpy-12" target="uESIzhDvVwOTqQSolOpy-1">
          <mxGeometry relative="1" as="geometry" />
        </mxCell>
        <mxCell id="uESIzhDvVwOTqQSolOpy-12" value="se&amp;nbsp;&lt;div&gt;encarga&lt;/div&gt;" style="rhombus;whiteSpace=wrap;html=1;" vertex="1" parent="1">
          <mxGeometry x="665" y="420" width="70" height="60" as="geometry" />
        </mxCell>
        <mxCell id="uESIzhDvVwOTqQSolOpy-24" value="" style="edgeStyle=orthogonalEdgeStyle;rounded=0;orthogonalLoop=1;jettySize=auto;html=1;" edge="1" parent="1" source="uESIzhDvVwOTqQSolOpy-15" target="uESIzhDvVwOTqQSolOpy-23">
          <mxGeometry relative="1" as="geometry" />
        </mxCell>
        <mxCell id="uESIzhDvVwOTqQSolOpy-15" value="PROYECTO" style="whiteSpace=wrap;html=1;" vertex="1" parent="1">
          <mxGeometry x="90" y="510" width="120" height="60" as="geometry" />
        </mxCell>
        <mxCell id="uESIzhDvVwOTqQSolOpy-21" value="" style="edgeStyle=orthogonalEdgeStyle;rounded=0;orthogonalLoop=1;jettySize=auto;html=1;" edge="1" parent="1" source="uESIzhDvVwOTqQSolOpy-16" target="uESIzhDvVwOTqQSolOpy-20">
          <mxGeometry relative="1" as="geometry" />
        </mxCell>
        <mxCell id="uESIzhDvVwOTqQSolOpy-16" value="CARGO" style="whiteSpace=wrap;html=1;" vertex="1" parent="1">
          <mxGeometry x="90" y="310" width="120" height="60" as="geometry" />
        </mxCell>
        <mxCell id="uESIzhDvVwOTqQSolOpy-19" value="" style="edgeStyle=orthogonalEdgeStyle;rounded=0;orthogonalLoop=1;jettySize=auto;html=1;" edge="1" parent="1" source="uESIzhDvVwOTqQSolOpy-17" target="uESIzhDvVwOTqQSolOpy-16">
          <mxGeometry relative="1" as="geometry" />
        </mxCell>
        <mxCell id="uESIzhDvVwOTqQSolOpy-17" value="tiene" style="rhombus;whiteSpace=wrap;html=1;" vertex="1" parent="1">
          <mxGeometry x="270" y="310" width="60" height="60" as="geometry" />
        </mxCell>
        <mxCell id="uESIzhDvVwOTqQSolOpy-22" value="" style="edgeStyle=orthogonalEdgeStyle;rounded=0;orthogonalLoop=1;jettySize=auto;html=1;" edge="1" parent="1" source="uESIzhDvVwOTqQSolOpy-20" target="uESIzhDvVwOTqQSolOpy-15">
          <mxGeometry relative="1" as="geometry" />
        </mxCell>
        <mxCell id="uESIzhDvVwOTqQSolOpy-20" value="asignado" style="rhombus;whiteSpace=wrap;html=1;" vertex="1" parent="1">
          <mxGeometry x="120" y="400" width="60" height="60" as="geometry" />
        </mxCell>
        <mxCell id="uESIzhDvVwOTqQSolOpy-26" value="" style="edgeStyle=orthogonalEdgeStyle;rounded=0;orthogonalLoop=1;jettySize=auto;html=1;" edge="1" parent="1" source="uESIzhDvVwOTqQSolOpy-23" target="uESIzhDvVwOTqQSolOpy-25">
          <mxGeometry relative="1" as="geometry" />
        </mxCell>
        <mxCell id="uESIzhDvVwOTqQSolOpy-23" value="contiene" style="rhombus;whiteSpace=wrap;html=1;" vertex="1" parent="1">
          <mxGeometry x="115" y="620" width="70" height="60" as="geometry" />
        </mxCell>
        <mxCell id="uESIzhDvVwOTqQSolOpy-25" value="TIPO DE PROYECTO" style="whiteSpace=wrap;html=1;" vertex="1" parent="1">
          <mxGeometry x="240" y="620" width="120" height="60" as="geometry" />
        </mxCell>
        <mxCell id="uESIzhDvVwOTqQSolOpy-29" style="edgeStyle=orthogonalEdgeStyle;rounded=0;orthogonalLoop=1;jettySize=auto;html=1;entryX=1;entryY=0.5;entryDx=0;entryDy=0;" edge="1" parent="1" source="uESIzhDvVwOTqQSolOpy-27" target="uESIzhDvVwOTqQSolOpy-15">
          <mxGeometry relative="1" as="geometry" />
        </mxCell>
        <mxCell id="uESIzhDvVwOTqQSolOpy-27" value="realiza" style="rhombus;whiteSpace=wrap;html=1;" vertex="1" parent="1">
          <mxGeometry x="330" y="505" width="70" height="70" as="geometry" />
        </mxCell>
        <mxCell id="uESIzhDvVwOTqQSolOpy-30" value="DIRECCION" style="ellipse;whiteSpace=wrap;html=1;" vertex="1" parent="1">
          <mxGeometry x="390" y="190" width="80" height="60" as="geometry" />
        </mxCell>
        <mxCell id="uESIzhDvVwOTqQSolOpy-32" value="TITULO" style="whiteSpace=wrap;html=1;" vertex="1" parent="1">
          <mxGeometry x="520" width="120" height="60" as="geometry" />
        </mxCell>
        <mxCell id="uESIzhDvVwOTqQSolOpy-35" value="" style="edgeStyle=orthogonalEdgeStyle;rounded=0;orthogonalLoop=1;jettySize=auto;html=1;" edge="1" parent="1" source="uESIzhDvVwOTqQSolOpy-33" target="uESIzhDvVwOTqQSolOpy-32">
          <mxGeometry relative="1" as="geometry" />
        </mxCell>
        <mxCell id="uESIzhDvVwOTqQSolOpy-33" value="posee" style="rhombus;whiteSpace=wrap;html=1;" vertex="1" parent="1">
          <mxGeometry x="555" y="90" width="50" height="50" as="geometry" />
        </mxCell>
      </root>
    </mxGraphModel>
  </diagram>
</mxfile>
